# xmcd CD database file
#
# Track frame offsets:
#	150
#	17140
#	30997
#	47064
#	61621
#	73542
#	91625
#	103430
#	116578
#	135467
#	149414
#	163413
#	179394
#	198028
#	215117
#
# Disc length: 3051 seconds
#
# Revision: 0
# Processed by: cddbd v1.5.2PL0 Copyright (c) Steve Scherf et al.
# Submitted via: CDex 1.70beta2
#
DISCID=d30be90f
DTITLE=Dave Harris - Folk N' Soul
DYEAR=2008
DGENRE=Blues
TTITLE0=Going Down The Road Feeling Bad
TTITLE1=Give Then Their Flowers
TTITLE2=Irene Goodnight
TTITLE3=Mary Don't you Weep
TTITLE4=Fanny Power
TTITLE5=Streets of London
TTITLE6=Fiddle Tune Madley
TTITLE7=Columbus Stockade Blues
TTITLE8=Cottonfields - Oh Body
TTITLE9=Down in the Boondocks
TTITLE10=Dock of the Bay
TTITLE11=Dark End of the Street
TTITLE12=Bring it on Home to Me
TTITLE13=Feelin' Alright
TTITLE14=Long as I can see the light
EXTD=YEAR: 2008
EXTT0=
EXTT1=
EXTT2=
EXTT3=
EXTT4=
EXTT5=
EXTT6=
EXTT7=
EXTT8=
EXTT9=
EXTT10=
EXTT11=
EXTT12=
EXTT13=
EXTT14=
PLAYORDER=
